<svg xmlns="http://www.w3.org/2000/svg" viewBox="0 0 360 420">
  <rect width="360" height="420" rx="24" fill="#f8efe8" />
  <g fill="#98a851">
    <circle cx="125" cy="130" r="38" opacity="0.25" />
    <circle cx="235" cy="130" r="38" opacity="0.25" />
  </g>
  <g fill="#556238">
    <path
      d="M110 190c-18 10-30 28-30 48v90h90v-70c0-24-20-54-60-68Z"
      opacity="0.18"
    />
    <path
      d="M250 190c18 10 30 28 30 48v90h-90v-70c0-24 20-54 60-68Z"
      opacity="0.18"
    />
  </g>
  <g fill="#98a851">
    <path
      d="M178 150c-20 0-36 16-36 36v92h72v-92c0-20-16-36-36-36Z"
      opacity="0.3"
    />
  </g>
  <g fill="#556238">
    <path d="M120 120a24 24 0 1 0 48 0 24 24 0 0 0-48 0Z" />
    <path d="M192 120a24 24 0 1 0 48 0 24 24 0 0 0-48 0Z" />
  </g>
  <g fill="#b7c675" opacity="0.6">
    <circle cx="60" cy="320" r="38" />
    <circle cx="300" cy="320" r="38" />
  </g>
  <g fill="#556238">
    <path
      d="M102 354c18-28 42-44 78-44s60 16 78 44"
      stroke="#556238"
      stroke-width="6"
      fill="none"
      stroke-linecap="round"
    />
  </g>
</svg>
